<svg xmlns="http://www.w3.org/2000/svg" viewBox="0 0 24 24" fill="currentColor" class="w-6 h-6">
  <path d="M12 .75a8.25 8.25 0 00-4.135 15.39c.686.398 1.115 1.008 1.134 1.623a.75.75 0 00.577.706c.352.083.71.148 1.074.195.323.041.6-.218.6-.544v-3.661a.75.75 0 00-.75-.75h-.75a.75.75 0 010-1.5h.75a.75.75 0 00.75-.75v-.75a.75.75 0 011.5 0v.75a.75.75 0 00.75.75h.75a.75.75 0 010 1.5h-.75a.75.75 0 00-.75.75v3.661c0 .326.277.585.6.544.364-.047.722-.112 1.074-.195a.75.75 0 00.577-.706c.02-.615.448-1.225 1.134-1.623A8.25 8.25 0 0012 .75z"/>
  <path d="M8.25 15a.75.75 0 01.75-.75h6a.75.75 0 010 1.5h-6a.75.75 0 01-.75-.75z"/>
</svg>
