<?xml version="1.0" encoding="UTF-8"?>
<svg id="Layer_1" xmlns="http://www.w3.org/2000/svg" viewBox="0 0 361.3 361.29">
  <defs>
    <style>
      .cls-1 {
        fill: #fff;
      }

      .cls-2 {
        fill: #fd3501;
      }
    </style>
  </defs>
  <path class="cls-1" d="M181.59,0C81.22-.12.03,80.64,0,180.63c-.04,99.65,80.79,180.62,180.33,180.66,100.02.04,180.7-80.38,180.97-180.4C361.58,81.5,280.72.11,181.59,0ZM272.06,229.65c-4.89,9.57-14.71,13.65-25.62,10.51-8.44-2.43-15.52-7.26-21.91-13.12-5.51-5.06-10.87-10.28-16.22-15.5-1.24-1.22-2.46-1.8-4.25-1.69-17.96,1.12-35.58,4.15-52.89,9.08-1.84.52-2.52,1.85-3.25,3.29-6.12,12-13.01,23.53-21.06,34.34-3.8,5.12-7.88,10-12.99,13.88-5.39,4.09-11.22,7-17.89,3.22-6.87-3.91-8.6-10.62-8.46-17.93.09-4.46,1.77-8.48,4.36-12.13,7.36-10.31,17.36-17.39,28.36-23.22,6.27-3.33,12.79-6.11,19.53-8.35,1.77-.59,2.84-1.59,3.68-3.31,7.5-15.31,14.09-31.01,20.04-46.99.83-2.21.35-3.7-.76-5.49-6.99-11.29-11.46-23.44-12.35-36.78-.49-7.31.19-14.45,2.98-21.26,3.31-8.1,9.37-12.74,15.71-12.26,6.98.54,13.99,6.99,16.1,14.73.93,3.42.89,6.9.94,11.32-.58,13.91-4.54,28.04-9.07,42.03-.92,2.83-.52,4.79,1.21,7.13,9.28,12.54,19.28,24.46,30.07,35.73,1.79,1.87,3.59,2.58,6.16,2.52,13.51-.31,26.9.58,39.95,4.43,5.04,1.49,9.85,3.51,13.92,6.96,5.9,5.02,7.24,11.95,3.71,18.86Z"/>
  <path class="cls-2" d="M268.35,210.79c-4.07-3.45-8.88-5.47-13.92-6.96-13.05-3.85-26.44-4.74-39.95-4.43-2.57.06-4.37-.65-6.16-2.52-10.79-11.27-20.79-23.19-30.07-35.73-1.73-2.34-2.13-4.3-1.21-7.13,4.53-13.99,8.49-28.12,9.07-42.03-.05-4.42-.01-7.9-.94-11.32-2.11-7.74-9.12-14.19-16.1-14.73-6.34-.48-12.4,4.16-15.71,12.26-2.79,6.81-3.47,13.95-2.98,21.26.89,13.34,5.36,25.49,12.35,36.78,1.11,1.79,1.59,3.28.76,5.49-5.95,15.98-12.54,31.68-20.04,46.99-.84,1.72-1.91,2.72-3.68,3.31-6.74,2.24-13.26,5.02-19.53,8.35-11,5.83-21,12.91-28.36,23.22-2.59,3.65-4.27,7.67-4.36,12.13-.14,7.31,1.59,14.02,8.46,17.93,6.67,3.78,12.5.87,17.89-3.22,5.11-3.88,9.19-8.76,12.99-13.88,8.05-10.81,14.94-22.34,21.06-34.34.73-1.44,1.41-2.77,3.25-3.29,17.31-4.93,34.93-7.96,52.89-9.08,1.79-.11,3.01.47,4.25,1.69,5.35,5.22,10.71,10.44,16.22,15.5,6.39,5.86,13.47,10.69,21.91,13.12,10.91,3.14,20.73-.94,25.62-10.51,3.53-6.91,2.19-13.84-3.71-18.86ZM134.37,225.71c-5.93,10.18-12.18,20.16-19.74,29.24-2.87,3.44-5.99,6.65-9.9,8.97-2.44,1.45-4.22.89-5.55-1.52-2.45-4.43-1.73-8.58,1.06-12.57,6.53-9.33,15.57-15.58,25.54-20.61,2.75-1.37,5.26-3.51,8.59-3.51.01-.02.02-.03.03-.05l.08.05h-.11ZM161.17,107.73c.58-3.34,1.69-6.49,3.8-9.2,2.1-2.7,3.98-2.92,6.43-.53,2.88,2.8,4.53,6.29,4.55,10.31.06,12.95-3.61,25.17-7.36,38.22-6.16-12.83-9.8-25.24-7.42-38.8ZM155.51,207.27c5.8-12.69,11.04-24.69,15.98-37.51,8.35,10.5,16.58,20.4,25.74,30.32-14.25,1.45-27.74,3.4-41.72,7.19ZM263.44,223.3c-.51,3.74-4.8,7.4-8.7,7.61-2.78.15-5.41-.53-7.99-1.57-9.97-4.02-17.16-11.58-25.44-19.52,11.42.31,21.55,1.25,31.37,4.4,1.89.6,3.76,1.33,5.51,2.24,2.77,1.45,5.8,2.92,5.25,6.84Z"/>
  <path class="cls-1" d="M197.23,200.08c-14.25,1.45-27.74,3.4-41.72,7.19,5.8-12.69,11.04-24.69,15.98-37.51,8.35,10.5,16.58,20.4,25.74,30.32Z"/>
  <path class="cls-1" d="M175.95,108.31c.06,12.95-3.61,25.17-7.36,38.22-6.16-12.83-9.8-25.24-7.42-38.8.58-3.34,1.69-6.49,3.8-9.2,2.1-2.7,3.98-2.92,6.43-.53,2.88,2.8,4.53,6.29,4.55,10.31Z"/>
  <path class="cls-1" d="M125.78,229.22c2.75-1.37,5.26-3.51,8.59-3.51-5.93,10.18-12.18,20.16-19.74,29.24-2.87,3.44-5.99,6.65-9.9,8.97-2.44,1.45-4.22.89-5.55-1.52-2.45-4.43-1.73-8.58,1.06-12.57,6.53-9.33,15.57-15.58,25.54-20.61Z"/>
  <path class="cls-2" d="M134.48,225.71h-.11s.02-.03.03-.05l.08.05Z"/>
  <path class="cls-1" d="M263.44,223.3c-.51,3.74-4.8,7.4-8.7,7.61-2.78.15-5.41-.53-7.99-1.57-9.97-4.02-17.16-11.58-25.44-19.52,11.42.31,21.55,1.25,31.37,4.4,1.89.6,3.76,1.33,5.51,2.24,2.77,1.45,5.8,2.92,5.25,6.84Z"/>
</svg>
