<?xml version="1.0" encoding="UTF-8"?>
<svg version="1.1" xmlns="http://www.w3.org/2000/svg" width="1538" height="1468">
<path d="M0 0 C507.54 0 1015.08 0 1538 0 C1538 484.44 1538 968.88 1538 1468 C1030.46 1468 522.92 1468 0 1468 C0 983.56 0 499.12 0 0 Z " fill="#FEFEFE" transform="translate(0,0)"/>
<path d="M0 0 C50.16 0 100.32 0 152 0 C152 58.08 152 116.16 152 176 C209.75 176 267.5 176 327 176 C327 225.83 327 275.66 327 327 C268.92 327 210.84 327 151 327 C151 384.75 151 442.5 151 502 C101.5 502 52 502 1 502 C1 444.25 1 386.5 1 327 C-57.08 327 -115.16 327 -175 327 C-175 277.17 -175 227.34 -175 176 C-117.25 176 -59.5 176 0 176 C0 117.92 0 59.84 0 0 Z " fill="#F5333F" transform="translate(430,255)"/>
<path d="M0 0 C0.70898438 0.1227832 1.41796875 0.24556641 2.1484375 0.37207031 C26.09892096 4.53587563 49.17849086 12.37935274 71 23 C71.73702148 23.35819824 72.47404297 23.71639648 73.23339844 24.08544922 C87.76992622 31.24880357 101.12780076 40.18529946 114 50 C110.55072778 51.14975741 109.78332511 50.83139966 106.44140625 49.70703125 C105.51352295 49.40804932 104.58563965 49.10906738 103.62963867 48.80102539 C102.61748291 48.47481201 101.60532715 48.14859863 100.5625 47.8125 C45.9523896 31.28060144 -12.08116732 39.58964985 -62 66 C-78.17295516 74.84533471 -92.20751874 85.82902645 -105.48583984 98.55322266 C-106.9124402 99.91633676 -108.35610006 101.26153241 -109.80078125 102.60546875 C-143.58065082 134.9187738 -167.92798413 185.76787969 -169.17700195 232.65820312 C-169.20322427 234.36580625 -169.22336251 236.07351071 -169.23828125 237.78125 C-169.25290405 239.16583908 -169.25290405 239.16583908 -169.26782227 240.57839966 C-169.42873294 259.74748674 -169.55694756 278.27045875 -165 297 C-164.633804 298.64836853 -164.26791633 300.29680559 -163.90234375 301.9453125 C-161.14654006 313.7688298 -156.81902294 324.88040705 -152 336 C-151.68691895 336.73460449 -151.37383789 337.46920898 -151.05126953 338.22607422 C-141.76463408 359.82278651 -128.16322164 379.00074965 -112 396 C-111.49629883 396.53093262 -110.99259766 397.06186523 -110.47363281 397.60888672 C-75.558482 434.16358537 -24.8529101 459.90343671 26.17904663 461.29142761 C30.53634761 461.36826476 34.89210193 461.38383716 39.25 461.375 C40.62714172 461.37518127 40.62714172 461.37518127 42.03210449 461.37536621 C62.43216082 461.33726839 82.57735413 459.682544 102 453 C104.06329432 452.29429648 106.12710458 451.59025935 108.19238281 450.89038086 C110.13817086 450.22570077 112.07714689 449.54117522 114.015625 448.85546875 C117 448 117 448 119 449 C107.81065404 457.90898558 96.44253063 465.93643168 84 473 C82.80213867 473.68425049 82.80213867 473.68425049 81.58007812 474.38232422 C63.21860964 484.74965929 43.48472111 492.90392355 23 498 C21.1746875 498.50080078 21.1746875 498.50080078 19.3125 499.01171875 C8.67724115 501.88643721 -2.07595227 503.62662044 -13 505 C-13.72058594 505.09643799 -14.44117188 505.19287598 -15.18359375 505.29223633 C-80.7612434 513.07466109 -147.45135823 492.74262674 -199.25 452.5 C-205.79054196 447.3124534 -211.98889021 441.78955745 -218 436 C-218.65935547 435.36787598 -219.31871094 434.73575195 -219.99804688 434.08447266 C-228.95338942 425.45362862 -237.41229184 416.72398161 -244.76904297 406.6796875 C-245.99785707 405.0029241 -247.24944508 403.34512847 -248.50390625 401.6875 C-277.53320099 362.77589216 -295.69196505 312.55842793 -297 264 C-297.03254883 263.00307129 -297.06509766 262.00614258 -297.09863281 260.97900391 C-298.94698134 197.22965001 -278.58537317 135.66532021 -237 87 C-236.04480469 85.87658203 -236.04480469 85.87658203 -235.0703125 84.73046875 C-223.25297532 71.23479379 -210.51448412 58.56441975 -196 48 C-194.85005169 47.14350934 -193.70031411 46.28673567 -192.55078125 45.4296875 C-184.36065742 39.38965791 -175.85620382 34.00632386 -167 29 C-166.29278809 28.5978125 -165.58557617 28.195625 -164.85693359 27.78125 C-140.61775799 14.13438623 -113.52055023 4.34103917 -86 0 C-85.23042969 -0.13390137 -84.46085937 -0.26780273 -83.66796875 -0.40576172 C-56.49645356 -5.04391014 -27.10908001 -4.99561655 0 0 Z " fill="#F5333F" transform="translate(1161,253)"/>
<path d="M0 0 C161.5608786 0 161.5608786 0 176.5625 4.25 C177.34786133 4.46615967 178.13322266 4.68231934 178.94238281 4.9050293 C208.9347601 13.38915781 235.32309063 29.20600348 251 57 C265.2853272 83.91978714 266.87051227 116.46300928 258.30322266 145.45922852 C251.47546973 166.69445304 236.90440603 185.20590788 218 197 C216.97132813 197.64195312 215.94265625 198.28390625 214.8828125 198.9453125 C210.20822233 201.76835351 206.40030818 204.04037322 201 205 C201.40089844 205.5762915 201.80179688 206.15258301 202.21484375 206.74633789 C203.43506336 208.50040358 204.65527768 210.25447296 205.87548828 212.00854492 C207.31132266 214.07253621 208.74719607 216.13650035 210.18310547 218.20043945 C213.83390059 223.44811029 217.48418568 228.69613366 221.1328125 233.9453125 C227.96941146 243.77958685 234.81734781 253.60561415 241.69165039 263.41357422 C247.00885944 271.00351641 252.29948368 278.61186489 257.58398438 286.22460938 C258.21755859 287.13662109 258.85113281 288.04863281 259.50390625 288.98828125 C260.10090332 289.8488916 260.69790039 290.70950195 261.31298828 291.59619141 C262.83629691 293.76674087 264.39468989 295.90625885 265.96484375 298.04296875 C268 301 268 301 268 303 C258.41211646 303.34896395 248.82644483 303.61474505 239.23357677 303.77718258 C234.77785315 303.85518822 230.32649881 303.96076443 225.87329102 304.1315918 C221.56753254 304.29571162 217.2659465 304.38447372 212.95730019 304.42315865 C211.32177304 304.45068459 209.68645212 304.50445297 208.05272484 304.58595085 C195.62936195 305.18050949 195.62936195 305.18050949 191.24459267 301.5442543 C187.97570516 297.97489675 185.44732661 294.01746799 183.05595779 289.82414627 C181.58753301 287.2874714 179.90518481 284.91809985 178.20703125 282.53125 C177.07308164 280.85581495 175.94158769 279.17871538 174.8125 277.5 C169.51077482 269.67109167 164.15871117 261.88040222 158.75 254.125 C153.65094029 246.81323357 148.56756117 239.49181287 143.53613281 232.13330078 C142.77029033 231.014972 141.99235213 229.90476054 141.19866943 228.80601501 C140 227 140 227 139.19555664 225.17088318 C138.03620107 222.87582649 137.04619431 221.5840974 135 220 C130.12878831 218.92847551 125.25655962 219.0431185 120.29296875 219.09765625 C119.02022095 219.08504761 117.74747314 219.07243896 116.43615723 219.05944824 C111.68674787 219.02257197 106.9370244 219.04615583 102.1875 219.0625 C86.2546875 219.0315625 86.2546875 219.0315625 70 219 C70 246.72 70 274.44 70 303 C46.9 303 23.8 303 0 303 C0 203.01 0 103.02 0 0 Z " fill="#333132" transform="translate(686,910)"/>
<path d="M0 0 C2.41023773 2.20862808 4.76679981 4.46667489 7.11816406 6.73803711 C7.86582031 7.44573242 8.61347656 8.15342773 9.38378906 8.88256836 C13.97824149 13.31826938 13.97824149 13.31826938 15.11816406 16.73803711 C13.454811 18.42890888 11.78759867 20.11568556 10.11816406 21.80053711 C9.66054687 22.2665332 9.20292969 22.7325293 8.73144531 23.21264648 C5.35036796 26.6168819 1.81056222 29.78372191 -1.81591797 32.92382812 C-5.23052438 35.92240296 -8.51880057 39.05263612 -11.81933594 42.17553711 C-21.08409499 50.88828438 -21.08409499 50.88828438 -25.25683594 54.67553711 C-25.92457031 55.28268555 -26.59230469 55.88983398 -27.28027344 56.51538086 C-28.88183594 57.73803711 -28.88183594 57.73803711 -30.88183594 57.73803711 C-32.22167969 56.30444336 -32.22167969 56.30444336 -33.81933594 54.30053711 C-48.67564213 36.96817989 -71.44159087 26.26980497 -93.88183594 23.73803711 C-98.34500024 23.4632503 -102.78598292 23.40334047 -107.25683594 23.42553711 C-108.43713379 23.43045166 -109.61743164 23.43536621 -110.83349609 23.44042969 C-133.53902899 23.74506564 -154.82774315 31.48934502 -171.88183594 46.73803711 C-173.1309375 47.84598633 -173.1309375 47.84598633 -174.40527344 48.97631836 C-191.59254186 65.13235068 -201.35706072 89.13048001 -202.08496094 112.60131836 C-202.48159474 139.94896818 -196.85840154 163.41360909 -178.88183594 184.73803711 C-178.26824219 185.5565918 -177.65464844 186.37514648 -177.02246094 187.21850586 C-174.55132547 190.12705034 -171.79227879 192.39638937 -168.75683594 194.67553711 C-168.17844971 195.1115625 -167.60006348 195.54758789 -167.00415039 195.99682617 C-144.02293928 213.10650773 -116.56273925 217.94550578 -88.30761719 214.24194336 C-64.84633929 209.90271014 -47.09691366 197.50800342 -30.88183594 180.73803711 C-26.3040063 182.16500022 -23.85075708 184.48265675 -20.56933594 187.92553711 C-16.85287944 191.80475813 -13.03708862 195.39452898 -8.97192383 198.90625 C-4.77277324 202.58645405 -0.75646966 206.4662417 3.29394531 210.30834961 C7.13142258 213.93057187 11.02344107 217.4086829 15.11816406 220.73803711 C4.89045584 242.89807158 -25.13196348 257.98187053 -46.76782227 266.29418945 C-52.55156297 268.40370478 -58.40480897 270.08258283 -64.38183594 271.55053711 C-65.16252441 271.74542725 -65.94321289 271.94031738 -66.74755859 272.14111328 C-80.62371032 275.32334375 -94.86726347 276.09400317 -109.05908203 276.05371094 C-111.38198322 276.05053691 -113.70362016 276.07420825 -116.02636719 276.09936523 C-126.90580463 276.14462175 -137.22313637 274.86279587 -147.88183594 272.73803711 C-148.98822166 272.52046249 -148.98822166 272.52046249 -150.11695862 272.29849243 C-189.07798736 264.56286524 -225.81780405 241.02680857 -248.06933594 207.98803711 C-257.70558431 193.33107995 -264.66671699 177.76598804 -269.56933594 160.92553711 C-269.87327271 159.91450928 -269.87327271 159.91450928 -270.18334961 158.88305664 C-273.75181223 146.06517463 -274.26508927 132.71290185 -274.19433594 119.48803711 C-274.19251312 118.77325195 -274.19069031 118.0584668 -274.18881226 117.32202148 C-274.0117771 75.87618854 -258.84863666 38.50685023 -229.88183594 8.73803711 C-171.12983571 -49.43471804 -62.46812274 -55.96023259 0 0 Z " fill="#333132" transform="translate(1267.8818359375,942.261962890625)"/>
<path d="M0 0 C75.57 0 151.14 0 229 0 C229 18.48 229 36.96 229 56 C176.53 56 124.06 56 70 56 C70 82.4 70 108.8 70 136 C116.2 136 162.4 136 210 136 C210 154.81 210 173.62 210 193 C163.8 193 117.6 193 70 193 C70 229.3 70 265.6 70 303 C46.9 303 23.8 303 0 303 C0 203.01 0 103.02 0 0 Z " fill="#333132" transform="translate(397,910)"/>
<path d="M0 0 C23.1 0 46.2 0 70 0 C70 99.99 70 199.98 70 303 C46.9 303 23.8 303 0 303 C0 203.01 0 103.02 0 0 Z " fill="#333132" transform="translate(255,910)"/>
<path d="M0 0 C16.0565625 -0.0928125 16.0565625 -0.0928125 32.4375 -0.1875 C35.78060303 -0.21481201 39.12370605 -0.24212402 42.56811523 -0.27026367 C45.27327109 -0.27904074 47.97843096 -0.28668177 50.68359375 -0.29296875 C51.35979263 -0.30080887 52.03599152 -0.30864899 52.73268127 -0.31672668 C71.44978092 -0.52232727 90.87967523 2.03470363 106 14 C106.61359375 14.47695313 107.2271875 14.95390625 107.859375 15.4453125 C116.0295404 22.63939619 121.12810172 34.52660954 122.2331543 45.26586914 C123.11817972 60.4272162 121.30220831 75.05132005 111 87 C99.89828566 98.94208316 84.77528213 103.75107196 69 106 C66.66282834 106.0841223 64.32354444 106.11780869 61.98486328 106.11352539 C61.30019926 106.11364593 60.61553524 106.11376646 59.91012383 106.11389065 C57.71348596 106.11314958 55.51693501 106.10555843 53.3203125 106.09765625 C51.95629924 106.09618433 50.59228542 106.09516516 49.22827148 106.09460449 C44.19383899 106.08938059 39.15941863 106.07541932 34.125 106.0625 C22.86375 106.041875 11.6025 106.02125 0 106 C0 71.02 0 36.04 0 0 Z " fill="#FDFCFC" transform="translate(756,967)"/>
</svg>
