<svg xmlns="http://www.w3.org/2000/svg" viewBox="0 0 24 24" fill="currentColor" class="w-6 h-6">
  <path fill-rule="evenodd" d="M12 2.25c-5.385 0-9.75 4.365-9.75 9.75s4.365 9.75 9.75 9.75 9.75-4.365 9.75-9.75S17.385 2.25 12 2.25zM8.547 4.505a8.25 8.25 0 1011.672 8.214l-.846-.846a6.75 6.75 0 00-8.4-8.4l-.846-.846a8.25 8.25 0 00-1.58 1.038zM12 18.75a6.75 6.75 0 006.75-6.75c0-1.59-.75-3.113-2.03-4.125l-.846-.846a8.25 8.25 0 00-1.58 1.038l.846.846A6.75 6.75 0 0012 18.75z" clip-rule="evenodd" />
</svg>
